<?xml version="1.0" encoding="iso-8859-1"?>
<!-- Generator: Adobe Illustrator 18.0.0, SVG Export Plug-In . SVG Version: 6.00 Build 0)  -->
<!DOCTYPE svg PUBLIC "-//W3C//DTD SVG 1.1//EN" "http://www.w3.org/Graphics/SVG/1.1/DTD/svg11.dtd">
<svg version="1.1" xmlns="http://www.w3.org/2000/svg" xmlns:xlink="http://www.w3.org/1999/xlink" x="0px" y="0px"
	 viewBox="0 0 48 48.005" style="enable-background:new 0 0 48 48.005;" xml:space="preserve">
<g id="gift">
	<path style="fill-rule:evenodd;clip-rule:evenodd;fill:#FB5150;" d="M44,48.005H4c-1.105,0-2-0.895-2-2v-25h44v25
		C46,47.11,45.105,48.005,44,48.005z"/>
	<path style="fill-rule:evenodd;clip-rule:evenodd;fill:#DBDBDB;" d="M31.746,12h-7.71c0.595-6.431,8.975-15.307,12.603-10.747
		C39.342,4.651,38.163,9.79,31.746,12z M34.533,3.402c-2.006-3.152-7.468,3.841-8.426,7.523
		C30.721,11.032,36.876,7.085,34.533,3.402z M16.254,12C9.837,9.79,8.658,4.651,11.361,1.253C14.989-3.307,23.369,5.569,23.964,12
		H16.254z M13.468,3.402c-2.343,3.682,3.811,7.63,8.426,7.523C20.935,7.244,15.473,0.251,13.468,3.402z"/>
	<path style="fill-rule:evenodd;clip-rule:evenodd;fill:#FF6E6E;" d="M48,22.005H0v-8c0-1.105,0.895-2,2-2h44c1.105,0,2,0.895,2,2
		V22.005z"/>
	<rect x="20" y="12.005" style="fill-rule:evenodd;clip-rule:evenodd;fill:#F7F7F7;" width="8" height="36"/>
	<rect x="20" y="22.005" style="fill-rule:evenodd;clip-rule:evenodd;fill:#DBDBDB;" width="8" height="26"/>
	<rect x="2" y="22.005" style="opacity:0.1;fill-rule:evenodd;clip-rule:evenodd;" width="44" height="2"/>
</g>
<g id="Layer_1">
</g>
</svg>
