<?xml version="1.0" encoding="iso-8859-1"?>
<!-- Generator: Adobe Illustrator 18.0.0, SVG Export Plug-In . SVG Version: 6.00 Build 0)  -->
<!DOCTYPE svg PUBLIC "-//W3C//DTD SVG 1.1//EN" "http://www.w3.org/Graphics/SVG/1.1/DTD/svg11.dtd">
<svg version="1.1" xmlns="http://www.w3.org/2000/svg" xmlns:xlink="http://www.w3.org/1999/xlink" x="0px" y="0px"
	 viewBox="0 0 48 48" style="enable-background:new 0 0 48 48;" xml:space="preserve">
<g id="confirm">
	<circle style="fill:#76DA51;" cx="24" cy="24" r="24"/>
	<g style="opacity:0.1;">
		<path d="M24,46C11.081,46,0.55,35.791,0.025,23C0.012,23.332,0,23.665,0,24c0,13.255,10.745,24,24,24s24-10.745,24-24
			c0-0.335-0.012-0.668-0.025-1C47.45,35.791,36.919,46,24,46z"/>
	</g>
	<path style="fill:#F7F7F7;" d="M17.636,35.849l-1.414-1.414c-0.781-0.781-0.781-2.047,0-2.828l18.385-18.385
		c0.781-0.781,2.047-0.781,2.828,0l1.414,1.414c0.781,0.781,0.781,2.047,0,2.828L20.464,35.849
		C19.683,36.63,18.417,36.63,17.636,35.849z"/>
	<path style="fill:#F7F7F7;" d="M9.151,24.536l1.414-1.414c0.781-0.781,2.047-0.781,2.828,0l8.485,8.485
		c0.781,0.781,0.781,2.047,0,2.828l-1.414,1.414c-0.781,0.781-2.047,0.781-2.828,0l-8.485-8.485
		C8.37,26.583,8.37,25.317,9.151,24.536z"/>
</g>
<g id="Layer_1">
</g>
</svg>
